<svg width="38" height="38" viewBox="0 0 38 38" fill="none" xmlns="http://www.w3.org/2000/svg">
<g clip-path="url(#clip0_4_741)">
<path d="M33.25 2.375C33.8799 2.375 34.484 2.62522 34.9294 3.07062C35.3748 3.51602 35.625 4.12011 35.625 4.75V33.25C35.625 33.8799 35.3748 34.484 34.9294 34.9294C34.484 35.3748 33.8799 35.625 33.25 35.625H4.75C4.12011 35.625 3.51602 35.3748 3.07062 34.9294C2.62522 34.484 2.375 33.8799 2.375 33.25V4.75C2.375 4.12011 2.62522 3.51602 3.07062 3.07062C3.51602 2.62522 4.12011 2.375 4.75 2.375H33.25ZM4.75 0C3.49022 0 2.28204 0.500445 1.39124 1.39124C0.500445 2.28204 0 3.49022 0 4.75L0 33.25C0 34.5098 0.500445 35.718 1.39124 36.6088C2.28204 37.4996 3.49022 38 4.75 38H33.25C34.5098 38 35.718 37.4996 36.6088 36.6088C37.4996 35.718 38 34.5098 38 33.25V4.75C38 3.49022 37.4996 2.28204 36.6088 1.39124C35.718 0.500445 34.5098 0 33.25 0L4.75 0Z" fill="#6DC199"/>
<path d="M26.0537 11.8038C26.3861 11.4743 26.8348 11.2889 27.3028 11.2876C27.7708 11.2863 28.2206 11.4693 28.5547 11.7969C28.8889 12.1245 29.0808 12.5706 29.0887 13.0385C29.0967 13.5064 28.9202 13.9587 28.5974 14.2976L19.1164 26.1488C18.9534 26.3243 18.7568 26.4652 18.5381 26.5629C18.3195 26.6607 18.0834 26.7134 17.844 26.7178C17.6045 26.7222 17.3666 26.6783 17.1445 26.5887C16.9224 26.4991 16.7207 26.3657 16.5514 26.1963L10.2695 19.9121C10.0945 19.749 9.95412 19.5523 9.85676 19.3338C9.75941 19.1153 9.70706 18.8795 9.70284 18.6403C9.69862 18.4011 9.74261 18.1636 9.8322 17.9418C9.92179 17.72 10.0551 17.5185 10.2243 17.3493C10.3934 17.1802 10.5949 17.0469 10.8167 16.9573C11.0385 16.8677 11.2761 16.8237 11.5152 16.8279C11.7544 16.8321 11.9903 16.8845 12.2088 16.9818C12.4273 17.0792 12.6239 17.2195 12.787 17.3946L17.7602 22.3654L26.0086 11.8561C26.0233 11.8377 26.0392 11.8202 26.0561 11.8038H26.0537Z" fill="#6DC199"/>
</g>
<defs>
<clipPath id="clip0_4_741">
<rect width="38" height="38" fill="white"/>
</clipPath>
</defs>
</svg>
