<svg width="38" height="38" viewBox="0 0 38 38" fill="none" xmlns="http://www.w3.org/2000/svg">
<path d="M33.25 2.375C33.8799 2.375 34.484 2.62522 34.9294 3.07062C35.3748 3.51602 35.625 4.12011 35.625 4.75V33.25C35.625 33.8799 35.3748 34.484 34.9294 34.9294C34.484 35.3748 33.8799 35.625 33.25 35.625H4.75C4.12011 35.625 3.51602 35.3748 3.07062 34.9294C2.62522 34.484 2.375 33.8799 2.375 33.25V4.75C2.375 4.12011 2.62522 3.51602 3.07062 3.07062C3.51602 2.62522 4.12011 2.375 4.75 2.375H33.25ZM4.75 0C3.49022 0 2.28204 0.500445 1.39124 1.39124C0.500445 2.28204 0 3.49022 0 4.75L0 33.25C0 34.5098 0.500445 35.718 1.39124 36.6088C2.28204 37.4996 3.49022 38 4.75 38H33.25C34.5098 38 35.718 37.4996 36.6088 36.6088C37.4996 35.718 38 34.5098 38 33.25V4.75C38 3.49022 37.4996 2.28204 36.6088 1.39124C35.718 0.500445 34.5098 0 33.25 0L4.75 0Z" fill="#6DC199"/>
</svg>
