<svg width="22" height="25" viewBox="0 0 22 25" fill="none" xmlns="http://www.w3.org/2000/svg">
<path d="M2.0625 1.625C1.63152 1.625 1.2182 1.7962 0.913451 2.10095C0.608705 2.4057 0.4375 2.81902 0.4375 3.25V4.875C0.4375 5.30598 0.608705 5.7193 0.913451 6.02405C1.2182 6.3288 1.63152 6.5 2.0625 6.5H2.875V21.125C2.875 21.987 3.21741 22.8136 3.8269 23.4231C4.4364 24.0326 5.26305 24.375 6.125 24.375H15.875C16.737 24.375 17.5636 24.0326 18.1731 23.4231C18.7826 22.8136 19.125 21.987 19.125 21.125V6.5H19.9375C20.3685 6.5 20.7818 6.3288 21.0865 6.02405C21.3913 5.7193 21.5625 5.30598 21.5625 4.875V3.25C21.5625 2.81902 21.3913 2.4057 21.0865 2.10095C20.7818 1.7962 20.3685 1.625 19.9375 1.625H14.25C14.25 1.19402 14.0788 0.780698 13.774 0.475951C13.4693 0.171205 13.056 0 12.625 0L9.375 0C8.94402 0 8.5307 0.171205 8.22595 0.475951C7.92121 0.780698 7.75 1.19402 7.75 1.625H2.0625ZM6.9375 8.125C7.15299 8.125 7.35965 8.2106 7.51202 8.36298C7.6644 8.51535 7.75 8.72201 7.75 8.9375V20.3125C7.75 20.528 7.6644 20.7347 7.51202 20.887C7.35965 21.0394 7.15299 21.125 6.9375 21.125C6.72201 21.125 6.51535 21.0394 6.36298 20.887C6.2106 20.7347 6.125 20.528 6.125 20.3125V8.9375C6.125 8.72201 6.2106 8.51535 6.36298 8.36298C6.51535 8.2106 6.72201 8.125 6.9375 8.125ZM11 8.125C11.2155 8.125 11.4222 8.2106 11.5745 8.36298C11.7269 8.51535 11.8125 8.72201 11.8125 8.9375V20.3125C11.8125 20.528 11.7269 20.7347 11.5745 20.887C11.4222 21.0394 11.2155 21.125 11 21.125C10.7845 21.125 10.5778 21.0394 10.4255 20.887C10.2731 20.7347 10.1875 20.528 10.1875 20.3125V8.9375C10.1875 8.72201 10.2731 8.51535 10.4255 8.36298C10.5778 8.2106 10.7845 8.125 11 8.125ZM15.875 8.9375V20.3125C15.875 20.528 15.7894 20.7347 15.637 20.887C15.4847 21.0394 15.278 21.125 15.0625 21.125C14.847 21.125 14.6403 21.0394 14.488 20.887C14.3356 20.7347 14.25 20.528 14.25 20.3125V8.9375C14.25 8.72201 14.3356 8.51535 14.488 8.36298C14.6403 8.2106 14.847 8.125 15.0625 8.125C15.278 8.125 15.4847 8.2106 15.637 8.36298C15.7894 8.51535 15.875 8.72201 15.875 8.9375Z" fill="#F688A7"/>
</svg>
